<?xml version="1.0" encoding="utf-8"?>
<!-- Generator: Adobe Illustrator 22.0.1, SVG Export Plug-In . SVG Version: 6.00 Build 0)  -->
<svg version="1.1" id="Layer_1" xmlns="http://www.w3.org/2000/svg" xmlns:xlink="http://www.w3.org/1999/xlink" x="0px" y="0px"
	 viewBox="0 0 940 1329.4" style="enable-background:new 0 0 940 1329.4;" xml:space="preserve">
<style type="text/css">
	.st0{filter:url(#Adobe_OpacityMaskFilter);}
	.st1{fill:#FFFFFF;}
	.st2{mask:url(#mask-2_4_);fill:#d7dade;}
</style>
<g id="Background-suggestions">
	<g id="Resume-Bg5" transform="translate(-170.000000, -107.000000)">
		<g id="Path-2" transform="translate(170.000000, 107.000000)">
			<g id="Mask">
			</g>
			<defs>
				<filter id="Adobe_OpacityMaskFilter" filterUnits="userSpaceOnUse" x="-28" y="-115.2" width="974" height="315.8">
					<feColorMatrix  type="matrix" values="1 0 0 0 0  0 1 0 0 0  0 0 1 0 0  0 0 0 1 0"/>
				</filter>
			</defs>
			<mask maskUnits="userSpaceOnUse" x="-28" y="-115.2" width="974" height="315.8" id="mask-2_4_">
				<g class="st0">
					<rect id="path-1_4_" y="0" class="st1" width="940" height="1329"/>
				</g>
			</mask>
			<path id="Page-1" class="st2" d="M906.6-115.2l-38.8,22.4l-38.6-22.3l-0.3,0.5l-0.3-0.5L790-92.9l-38.6-22.3l-0.3,0.5l-0.3-0.5
				l-38.6,22.3l-38.6-22.3l-0.2-0.1h-0.3l-38.8,22.4l-38.6-22.3l-0.3,0.5l-0.3-0.5l-38.6,22.3l-38.8-22.4h-0.3l-38.8,22.4L440-115.2
				l-0.3,0.5l-0.3-0.5l-38.6,22.3l-38.6-22.3l-0.3,0.5l-0.3-0.5l-38.6,22.3l-38.6-22.3l-0.3,0.5l-0.3-0.5l-38.6,22.3l-38.6-22.3
				l-0.3,0.5l-0.3-0.5l-38.6,22.3l-38.6-22.3l-0.3,0.5l-0.3-0.5L89.4-92.9l-38.6-22.3l-0.3,0.5l-0.3-0.5L11.5-92.9l-38.6-22.3
				l-0.3,0.5H-28v44.9h0.6l0.3,0.5l38.6-22.3L50-69.3l0.4-0.4l0,0.6h0.2l38.8-22.4l116.2,67.1v44.6l0.6,0l0,0.6h0.2l38.8-22.4
				l77.5,44.8l0.3-0.5h0.6V-1.3l76.1,43.9l-38,22l0.3,0.5l-0.3,0.5l38.6,22.3v44.6h0.6l-0.3,0.5l39,22.6h0.2h0l0-0.6h0.6v-43.9
				l37.7,21.8v44.6h0.6l0.3,0.5l38.6-22.3l77.5,44.8l0.3-0.5l0.3,0.5l77-44.4V200h0.6v0.6h0l0-0.6l0,0.6h0.2l78-45l-0.3-0.5h0.6
				v-43.9l77,44.4l0.3-0.5l0.3,0.5l38.6-22.3l77.5,44.8l0.6-1l-38-22l38-22l-0.3-0.5l0.3-0.5l-38-22l38-22l-0.3-0.5l0.3-0.5l-38-22
				l38-22l-0.3-0.5l0.3-0.5l-38-21.9l38-22l-0.3-0.5l0.3-0.5l-38-22l38-22l-0.3-0.5l0.3-0.5l-38-22l38-22l-0.3-0.5l0.3-0.5
				l-38.9-22.5l-0.2-0.1H906.6z M907.4-113.6l37.2,21.5l-37.2,21.5V-113.6z M673.8-113.6L711-92.2l-37.2,21.5V-113.6z M479.8-92.2
				l37.2-21.5v42.9L479.8-92.2z M869-92.2l37.1-21.4v42.9L869-92.2z M829.5-113.6l37.2,21.4l-37.2,21.4V-113.6z M791.2-92.2
				l37.2-21.5v42.9L791.2-92.2z M751.7-113.6l37.2,21.5l-37.2,21.5V-113.6z M713.4-92.2l37.1-21.4v42.9L713.4-92.2z M635.5-92.2
				l37.2-21.5v42.9L635.5-92.2z M596-113.6l37.2,21.5L596-70.7V-113.6z M557.6-92.2l37.2-21.5v42.9L557.6-92.2z M518.1-113.6
				l37.1,21.4l-37.1,21.4V-113.6z M440.3-113.6l37.2,21.4l-37.2,21.4V-113.6z M401.9-92.2l37.2-21.4v42.9L401.9-92.2z M362.4-113.6
				l37.2,21.4l-37.2,21.4V-113.6z M324.1-92.2l37.2-21.5v42.9L324.1-92.2z M284.6-113.6l37.2,21.5l-37.2,21.4V-113.6z M246.3-92.2
				l37.1-21.4v42.9L246.3-92.2z M206.7-113.6l37.1,21.4l-37.1,21.4V-113.6z M168.4-92.2l37.2-21.5v42.9L168.4-92.2z M128.9-113.6
				L166-92.2l-37.2,21.4V-113.6z M90.5-92.2l37.2-21.5v42.9L90.5-92.2z M51-113.6l37.2,21.5L51-70.7V-113.6z M12.7-92.2l37.2-21.5
				v42.9L12.7-92.2z M-26.8-113.6l37.2,21.4l-37.2,21.5V-113.6z M518.7-69.7l37.7-21.8l37.7,21.8l-37.7,21.8L518.7-69.7z
				 M285.2-69.7l37.7-21.8l76.7,44.3l-37.7,21.8L285.2-69.7z M596.6-69.7l37.7-21.8l37.8,21.8l-37.7,21.8L596.6-69.7z M245.7-91.2
				l37.2,21.5l-37.2,21.5V-91.2z M712.8-91.2l37.2,21.5l-37.2,21.5V-91.2z M830.1-69.7l37.2-21.5v42.9L830.1-69.7z M440.9-69.7
				L478-91.2v42.9L440.9-69.7z M363-69.7l37.2-21.5v42.9L363-69.7z M129.5-69.7l37.2-21.5v42.9L129.5-69.7z M790.6-91.2l37.2,21.4
				l-37.2,21.5V-91.2z M401.4-91.2l37.2,21.4l-37.2,21.5V-91.2z M752.3-69.7l37.1-21.4v42.9L752.3-69.7z M479.2-91.2l37.2,21.4
				l-37.2,21.5V-91.2z M207.3-69.7l37.1-21.4v42.9L207.3-69.7z M167.8-91.2L205-69.7l-37.1,21.4V-91.2z M868.5-91.2l37.2,21.5
				l-37.2,21.5V-91.2z M674.4-69.7l37.2-21.5v42.9L674.4-69.7z M752.3-24.8L828.9-69l37.8,21.8L790-3L752.3-24.8z M596.6-24.7
				L673.2-69L711-47.2L634.3-3L596.6-24.7z M479.8-47.2L517-68.7v42.9L479.8-47.2z M284.6-68.7l37.2,21.5l-37.2,21.5V-68.7z
				 M907.4-68.7l37.2,21.5l-37.2,21.5V-68.7z M751.7-68.7l37.2,21.5l-37.2,21.5V-68.7z M596-68.7l37.2,21.5L596-25.8V-68.7z
				 M168.4-47.2l37.2-21.5v42.9L168.4-47.2z M401.9-47.2l37.2-21.5v42.9L401.9-47.2z M246.2-47.2l37.2-21.4v42.9L246.2-47.2z
				 M440.3-68.7l37.2,21.4l-37.2,21.5V-68.7z M518.1-68.7l37.2,21.4l-37.2,21.5V-68.7z M713.3-47.2l37.2-21.5v42.9L713.3-47.2z
				 M206.7-25.1v-43.6l37.7,21.8v43.6L206.7-25.1z M557.6-47.2l37.2-21.4v42.9L557.6-47.2z M869.1-47.2l37.1-21.4v42.9L869.1-47.2z
				 M440.9-24.8l37.8-21.8l37.8,21.8L478.6-3L440.9-24.8z M518.7-24.8l37.7-21.8l37.8,21.8L556.5-3L518.7-24.8z M285.2-24.8
				l37.7-21.8l37.7,21.8L322.9-3L285.2-24.8z M245.7-46.2l37.2,21.5L245.7-3.3V-46.2z M363-24.8l37.1-21.4v42.9L363-24.8z
				 M868.5-1.9v-0.4v-0.3v-43.6l76.1,43.9l-76.1,43.9V-1.9z M712.8-46.2l37.2,21.5L712.8-3.3V-46.2z M401.4-46.2l37.2,21.4
				L401.4-3.3V-46.2z M674.4-24.7l37.2-21.5v42.9L674.4-24.7z M830.1-24.7l37.2-21.5v42.9L830.1-24.7z M401.4,42.3V-1.9l38.3-22.1
				l37.7,21.8l-38,22l0.3,0.5h-0.6v43.9L401.4,42.3z M751.4,19.7l-38-22l37.7-21.8l38.3,22.1v88.5l-37.7-21.8V20.2h-0.6L751.4,19.7z
				 M246.3-2.3L284-24.1l37.7,21.8L284,19.5L246.3-2.3z M635.5-2.3l37.7-21.8l38.3,22.1v43.6L635.5-2.3z M791.2-2.3l37.7-21.8
				l37.8,21.8l-37.8,21.8L791.2-2.3z M362.4-23.7l37.2,21.5l-37.2,21.5V-23.7z M518.1-23.7l37.7,21.8v44.3l-37.7,21.8V-23.7z
				 M596-23.7l37.2,21.5L596,19.2V-23.7z M479.8-2.3L517-23.7v42.9L479.8-2.3z M324.1-2.3l37.1-21.4v42.9L324.1-2.3z M206.7-23.7
				l37.2,21.4l-37.2,21.4V-23.7z M557.7-2.3l37.1-21.4v42.9L557.7-2.3z M557.7,42.7l76.7-44.3l37.7,21.8l-76.7,44.3L557.7,42.7z
				 M557.1-1.3l37.2,21.4l-37.2,21.5V-1.3z M440.9,20.2L478-1.3v42.9L440.9,20.2z M363,20.2l37.1-21.4v42.9L363,20.2z M285.2,20.2
				l37.2-21.4v42.9L285.2,20.2z M790.6-1.3l37.2,21.5l-37.2,21.4V-1.3z M479.2,42.3V-1.3L517,20.5v43.6L479.2,42.3z M712.8-1.3
				l37.2,21.5l-37.2,21.5V-1.3z M830.1,20.2l37.2-21.4v42.9L830.1,20.2z M635.5,42.7l37.7-21.8L711,42.7l-37.7,21.8L635.5,42.7z
				 M907.4,21.2l37.2,21.5l-37.2,21.5V21.2z M829.5,64.8V21.2L867.3,43v43.6L829.5,64.8z M791.2,42.7l37.2-21.4v42.9L791.2,42.7z
				 M713.3,42.7l37.2-21.5v42.9L713.3,42.7z M440.3,21.2l37.2,21.4l-37.2,21.4V21.2z M869,42.7l37.1-21.4v42.9L869,42.7z
				 M596.6,65.1l37.7-21.8l37.8,21.8l-37.7,21.8L596.6,65.1z M401.4,43.7l37.2,21.5l-37.2,21.4V43.7z M518.7,65.1l37.2-21.5v42.9
				L518.7,65.1z M790.6,43.7l37.1,21.4l-37.1,21.4V43.7z M557.1,87.3V43.7l37.7,21.8v43.6L557.1,87.3z M440.9,65.1L478,43.7v42.9
				L440.9,65.1z M363,65.1l37.2-21.4v42.9L363,65.1z M712.8,87.3V43.7l37.7,21.8v43.6L712.8,87.3z M479.2,87.3V43.7l76.1,43.9
				l-37.7,21.8L479.2,87.3z M868.5,43.7l37.2,21.4l-37.2,21.5V43.7z M673.8,65.5l37.7-21.8v43.6l-37.7,21.8V65.5z M791.2,87.6
				l37.8-21.8l37.8,21.8l-37.8,21.8L791.2,87.6z M401.4,87.9l38.3-22.1L478,87.9v43.6l-38-22l-0.3,0.5h0l-0.3-0.5l-38,22V87.9z
				 M596,66.2l37.2,21.5L596,109.1V66.2z M907.4,66.2l37.2,21.5l-37.2,21.5V66.2z M869,87.6l37.2-21.5v42.9L869,87.6z M751.7,66.2
				l37.1,21.4l-37.1,21.4V66.2z M635.5,87.6l37.1-21.4v42.9L635.5,87.6z M712.2,88.3l37.7,21.8l-76.7,44.3l-38.3-22.1V88.6l38,22
				l0.3-0.5l0.3,0.5L712.2,88.3z M518.7,110.1l37.7-21.8l38.3,22.1V154L518.7,110.1z M752.3,110.1l37.2-21.5v42.9L752.3,110.1z
				 M479.2,88.6l37.2,21.5l-37.2,21.4V88.6z M830.1,110.1l37.2-21.5v42.9L830.1,110.1z M868.5,88.6l37.2,21.5l-37.2,21.5V88.6z
				 M790.6,88.6l37.2,21.5l-37.2,21.5V88.6z M596.6,110.1l37.1-21.4v42.9L596.6,110.1z M791.2,132.6l37.7-21.8l37.7,21.8l-37.7,21.8
				L791.2,132.6z M713.3,132.6l37.2-21.5V154L713.3,132.6z M479.8,132.6l37.2-21.5V154L479.8,132.6z M518.1,111.1l37.2,21.5
				L518.1,154V111.1z M907.4,111.1l37.2,21.5L907.4,154V111.1z M596,111.1l37.2,21.5L596,154V111.1z M401.9,132.6l37.2-21.4V154
				L401.9,132.6z M869,132.6l37.1-21.4V154L869,132.6z M674.4,155l37.2-21.5v42.9L674.4,155z M557.1,177.2v-43.6l37.7,21.8V199
				L557.1,177.2z M634.9,133.6L672,155l-37.1,21.4V133.6z M712.8,133.6l37.2,21.4l-37.2,21.5V133.6z M596.6,155l37.1-21.4v42.9
				L596.6,155z M518.7,155l37.2-21.5v42.9L518.7,155z M479.2,133.6l37.2,21.4l-37.2,21.4V133.6z M596,156l37.2,21.4L596,199V156z
				 M673.8,156.1l37.2,21.5L673.8,199V156.1z"/>
		</g>
	</g>
</g>
</svg>
